# Blender 4.4.1
# www.blender.org
mtllib Goal.mtl
o Cube
v 0.500000 0.500000 -0.500000
v 0.000000 -0.500000 0.000000
v 0.500000 0.500000 0.500000
v -0.500000 0.500000 -0.500000
v -0.500000 0.500000 0.500000
vn -0.0000 1.0000 -0.0000
vn -0.0000 -0.4472 0.8944
vn -0.8944 -0.4472 -0.0000
vn 0.8944 -0.4472 -0.0000
vn -0.0000 -0.4472 -0.8944
vt 0.625000 0.500000
vt 0.875000 0.500000
vt 0.875000 0.750000
vt 0.625000 0.750000
vt 0.375000 0.750000
vt 0.625000 1.000000
vt 0.375000 0.000000
vt 0.625000 0.000000
vt 0.625000 0.250000
vt 0.375000 0.500000
vt 0.375000 0.250000
s 0
usemtl Material
f 1/1/1 4/2/1 5/3/1 3/4/1
f 2/5/2 3/4/2 5/6/2
f 2/7/3 5/8/3 4/9/3
f 2/10/4 1/1/4 3/4/4
f 2/11/5 4/9/5 1/1/5
